<svg width="20" height="20" viewBox="0 0 20 20" fill="none" xmlns="http://www.w3.org/2000/svg">
<rect width="20" height="20" rx="5" fill="#FF6652"/>
<path d="M5.83584 5.4165C5.83551 5.4165 5.83515 5.4165 5.83483 5.4165C5.72133 5.4165 5.61458 5.46075 5.53398 5.54115C5.45248 5.62244 5.40759 5.73069 5.40759 5.84592V12.2849C5.40759 12.521 5.60044 12.7136 5.83753 12.7142C6.83705 12.7166 8.51165 12.9249 9.66688 14.1339V7.39526C9.66688 7.31522 9.64644 7.24002 9.60785 7.1778C8.65969 5.65085 6.83762 5.41885 5.83584 5.4165Z" fill="white"/>
<path d="M14.593 12.285V5.84592C14.593 5.73069 14.5481 5.62244 14.4666 5.54115C14.386 5.46075 14.2792 5.4165 14.1658 5.4165C14.1654 5.4165 14.1651 5.4165 14.1647 5.4165C13.163 5.41889 11.3409 5.65089 10.3927 7.17784C10.3541 7.24007 10.3337 7.31526 10.3337 7.3953V14.1339C11.489 12.9249 13.1636 12.7166 14.1631 12.7142C14.4001 12.7136 14.593 12.5211 14.593 12.285Z" fill="white"/>
<path d="M15.5704 6.90137H15.2591V12.2849C15.2591 12.8877 14.7679 13.3793 14.1641 13.3808C13.3163 13.3828 11.9184 13.5486 10.9283 14.4856C12.6406 14.0664 14.4456 14.3389 15.4743 14.5734C15.6027 14.6026 15.7355 14.5724 15.8384 14.4904C15.9409 14.4085 15.9998 14.2862 15.9998 14.155V7.3307C15.9998 7.09397 15.8071 6.90137 15.5704 6.90137Z" fill="white"/>
<path d="M4.74069 12.2849V6.90137H4.42933C4.19265 6.90137 4 7.09397 4 7.3307V14.1548C4 14.2862 4.05883 14.4084 4.16137 14.4902C4.2642 14.5722 4.39681 14.6026 4.52546 14.5732C5.55415 14.3388 7.3592 14.0663 9.07137 14.4855C8.08139 13.5485 6.68348 13.3828 5.83568 13.3808C5.23192 13.3793 4.74069 12.8877 4.74069 12.2849Z" fill="white"/>
</svg>
