<svg width="25" height="24" viewBox="0 0 25 24" fill="none" xmlns="http://www.w3.org/2000/svg">
<rect x="0.333984" width="24" height="24" rx="4" fill="#F8F2FF"/>
<g clip-path="url(#clip0_1_4944)">
<path d="M12.7927 9.6812C12.5376 9.93577 12.1241 9.93577 11.869 9.6812C11.614 9.42663 11.614 9.01386 11.869 8.75929C12.1241 8.50472 12.5376 8.50472 12.7927 8.75929C13.0478 9.01386 13.0478 9.42663 12.7927 9.6812Z" fill="#9C4DF4"/>
<path d="M13.6855 10.6689C13.6059 10.6689 13.5263 10.6385 13.4657 10.5777C13.3446 10.4564 13.3448 10.2598 13.4661 10.1387C13.712 9.89336 13.8474 9.56714 13.8474 9.22021C13.8474 8.87328 13.712 8.54706 13.4661 8.30167C13.3448 8.18051 13.3446 7.98401 13.4657 7.86261C13.5868 7.74129 13.7834 7.74106 13.9047 7.86222C14.2681 8.22493 14.4682 8.70715 14.4682 9.22021C14.4682 9.73319 14.2681 10.2155 13.9047 10.5782C13.8441 10.6387 13.7648 10.6689 13.6855 10.6689Z" fill="#9C4DF4"/>
<path d="M14.3877 11.5828C14.3082 11.5828 14.2286 11.5524 14.168 11.4917C14.0468 11.3703 14.0471 11.1738 14.1684 11.0526C14.6589 10.5631 14.929 9.91235 14.929 9.22013C14.929 8.52791 14.6589 7.87713 14.1684 7.38761C14.0471 7.26645 14.0468 7.06995 14.168 6.94855C14.2892 6.82723 14.4857 6.82699 14.607 6.94816C15.215 7.555 15.5499 8.36186 15.5499 9.22013C15.5499 10.0784 15.215 10.8853 14.607 11.4922C14.5464 11.5526 14.4671 11.5828 14.3877 11.5828Z" fill="#9C4DF4"/>
<path d="M10.9756 10.6689C10.8963 10.6689 10.8169 10.6387 10.7563 10.5782C10.3929 10.2155 10.1927 9.73322 10.1927 9.22024C10.1927 8.70718 10.3929 8.22495 10.7563 7.86225C10.8776 7.74109 11.0742 7.74124 11.1953 7.86264C11.3164 7.98396 11.3162 8.18054 11.1949 8.3017C10.949 8.54709 10.8136 8.87331 10.8136 9.22024C10.8136 9.56717 10.949 9.89339 11.1949 10.1388C11.3162 10.2599 11.3164 10.4564 11.1953 10.5778C11.1347 10.6385 11.0551 10.6689 10.9756 10.6689Z" fill="#9C4DF4"/>
<path d="M10.2733 11.5829C10.1939 11.5829 10.1145 11.5526 10.0539 11.4921C9.44593 10.8853 9.11108 10.0784 9.11108 9.22017C9.11108 8.36182 9.44593 7.55496 10.0539 6.94812C10.1753 6.82703 10.3718 6.82719 10.4929 6.94859C10.6141 7.06991 10.6139 7.26641 10.4925 7.38757C10.0021 7.87709 9.73189 8.52787 9.73189 9.22009C9.73189 9.91231 10.0021 10.5632 10.4925 11.0527C10.6139 11.1739 10.6141 11.3704 10.4929 11.4917C10.4323 11.5525 10.3528 11.5829 10.2733 11.5829Z" fill="#9C4DF4"/>
<path d="M16.4219 12.1191H8.23889C7.83781 12.1191 7.5127 12.4443 7.5127 12.8453V16.4165C7.5127 16.8176 7.83781 17.1427 8.23889 17.1427H16.4218C16.8229 17.1427 17.148 16.8176 17.148 16.4165V12.8453C17.148 12.4443 16.8229 12.1191 16.4219 12.1191ZM9.90073 16.211H8.75697C8.58559 16.211 8.44661 16.072 8.44661 15.9005V13.3613C8.44661 13.1899 8.58559 13.0509 8.75697 13.0509C8.92844 13.0509 9.06741 13.1898 9.06741 13.3613V15.5901H9.90073C10.0722 15.5901 10.2112 15.7291 10.2112 15.9005C10.2112 16.072 10.0722 16.211 9.90073 16.211ZM11.1729 15.9005C11.1729 16.072 11.034 16.211 10.8625 16.211C10.691 16.211 10.5521 16.072 10.5521 15.9005V13.3613C10.5521 13.1899 10.691 13.0509 10.8625 13.0509C11.034 13.0509 11.1729 13.1898 11.1729 13.3613V15.9005ZM13.7849 13.4511L13.0182 15.9902C13.0182 15.9905 13.0181 15.9907 13.018 15.9909C12.9348 16.2751 12.5103 16.2681 12.4241 15.9909C12.424 15.9907 12.424 15.9905 12.4239 15.9902L11.6573 13.4511C11.6078 13.2869 11.7006 13.1137 11.8648 13.0641C12.0288 13.0146 12.2021 13.1074 12.2516 13.2716L12.7211 14.8264L13.1905 13.2716C13.2401 13.1074 13.4133 13.0145 13.5774 13.0641C13.7415 13.1137 13.8345 13.2869 13.7849 13.4511ZM15.6947 14.1606C15.8661 14.1606 16.0051 14.2996 16.0051 14.4711C16.0051 14.6425 15.8661 14.7815 15.6947 14.7815H14.8137V15.5901H15.8619C16.0334 15.5901 16.1723 15.7291 16.1723 15.9005C16.1723 16.072 16.0334 16.211 15.8619 16.211H14.5033C14.3318 16.211 14.1928 16.072 14.1928 15.9005V13.3613C14.1928 13.1899 14.3318 13.0509 14.5033 13.0509H15.9037C16.0751 13.0509 16.2142 13.1898 16.2142 13.3613C16.2142 13.5328 16.0751 13.6717 15.9037 13.6717H14.8136V14.1606H15.6947Z" fill="#9C4DF4"/>
</g>
<defs>
<clipPath id="clip0_1_4944">
<rect width="10.2857" height="10.2857" fill="white" transform="translate(7.19116 6.85742)"/>
</clipPath>
</defs>
</svg>
